# xmcd
#
# Track frame offsets:
#  150
#  12682
#  29845
#  45110
#  57845
#  73302
#  88857
#  107772
#  122797
#  136087
#
# Disc length: 2009 seconds
#
# Revision: 3
# Processed by: cddbd v1.5.1PL0 Copyright (c) Steve Scherf et al.
# Submitted via: Collectorz.com_Music_Collector 6.9
#
DISCID=8d07d70a
DTITLE=Confederate Railroad - Confederate Railroad
DYEAR=1992
DGENRE=Country
TTITLE0=She Took It Like A Man
TTITLE1=Long Gone
TTITLE2=Jesus And Mama
TTITLE3=Time Off For Bad Behavior
TTITLE4=She Never Cried
TTITLE5=Black Label, White Lies
TTITLE6=When You Leave That Way You Can Never Go Back
TTITLE7=Queen Of Memphis
TTITLE8=You Don't Know What It's Like
TTITLE9=Trashy Women
EXTD=
EXTT0=
EXTT1=
EXTT2=
EXTT3=
EXTT4=
EXTT5=
EXTT6=
EXTT7=
EXTT8=
EXTT9=
PLAYORDER=
